<svg width="189" height="152" viewBox="0 0 189 152" fill="none" xmlns="http://www.w3.org/2000/svg">
<path opacity="0.8" d="M157.67 4.49995H157.408L157.161 4.58892L120.561 17.7889L119.244 18.264L119.628 19.6106L127.428 47.0107L127.834 48.4394L129.267 48.0466L152.17 41.7666V146V147.5H153.67H185.67H187.17V146V5.99995V4.49995H185.67H157.67ZM60 150.3C78.5578 150.3 93.2541 142.689 103.269 129.507C113.249 116.372 118.5 97.8194 118.5 76C118.5 54.1805 113.249 35.6282 103.269 22.4925C93.2541 9.31049 78.5578 1.69995 60 1.69995C41.4422 1.69995 26.7459 9.31049 16.7306 22.4925C6.75055 35.6282 1.5 54.1805 1.5 76C1.5 97.8194 6.75055 116.372 16.7306 129.507C26.7459 142.689 41.4422 150.3 60 150.3ZM60 116.1C52.1325 116.1 46.3726 112.732 42.4915 106.162C38.5421 99.4766 36.5 89.3945 36.5 76C36.5 62.6054 38.5421 52.5233 42.4915 45.8379C46.3726 39.268 52.1325 35.9 60 35.9C67.8675 35.9 73.6274 39.268 77.5085 45.8379C81.4579 52.5233 83.5 62.6054 83.5 76C83.5 89.3945 81.4579 99.4766 77.5085 106.162C73.6274 112.732 67.8675 116.1 60 116.1Z" fill="#F5791E" fill-opacity="0.15" stroke="#F5791E" stroke-width="3"/>
</svg>
