<svg width="222" height="152" viewBox="0 0 222 152" fill="none" xmlns="http://www.w3.org/2000/svg">
<path opacity="0.8" d="M121.97 146V147.5H123.47H218.67H220.17V146V115.2V113.7H218.67H175.27L195.931 92.8606C195.932 92.8597 195.933 92.8588 195.934 92.8578C208.856 79.9346 218.17 65.1744 218.17 47.8C218.17 18.588 194.902 1.69995 169.27 1.69995C149.35 1.69995 129.961 11.7869 120.694 33.2043L120.166 34.4236L121.313 35.0946L148.313 50.8946L149.776 51.7506L150.447 50.1946C154.093 41.7518 160.654 35.9 169.67 35.9C174.044 35.9 177.384 37.2885 179.63 39.5555C181.878 41.8259 183.17 45.121 183.17 49.2C183.17 52.9292 181.806 56.7565 179.366 60.7418C176.926 64.7281 173.464 68.7856 169.397 72.9521L169.39 72.9594L122.39 121.759L121.97 122.195V122.8V146ZM60 150.3C78.5578 150.3 93.2541 142.689 103.269 129.507C113.249 116.372 118.5 97.8194 118.5 76C118.5 54.1805 113.249 35.6282 103.269 22.4925C93.2541 9.31049 78.5578 1.69995 60 1.69995C41.4422 1.69995 26.7459 9.31049 16.7306 22.4925C6.75055 35.6282 1.5 54.1805 1.5 76C1.5 97.8194 6.75055 116.372 16.7306 129.507C26.7459 142.689 41.4422 150.3 60 150.3ZM60 116.1C52.1325 116.1 46.3726 112.732 42.4915 106.162C38.5421 99.4766 36.5 89.3945 36.5 76C36.5 62.6054 38.5421 52.5233 42.4915 45.8379C46.3726 39.268 52.1325 35.9 60 35.9C67.8675 35.9 73.6274 39.268 77.5085 45.8379C81.4579 52.5233 83.5 62.6054 83.5 76C83.5 89.3945 81.4579 99.4766 77.5085 106.162C73.6274 112.732 67.8675 116.1 60 116.1Z" fill="#F5791E" fill-opacity="0.15" stroke="#F5791E" stroke-width="3"/>
</svg>
