<svg width="224" height="152" viewBox="0 0 224 152" fill="none" xmlns="http://www.w3.org/2000/svg">
<path opacity="0.8" d="M222.48 102C222.48 82.5801 210.302 68.6197 193.632 62.1072L216.56 32.9267L216.88 32.5187V32V5.99995V4.49995H215.38H125.38H123.88V5.99995V36V37.5H125.38H173.487L150.003 67.271L149.327 68.1282L149.934 69.0352L162.135 87.2352L162.58 87.9H163.38H169.98C176.324 87.9 180.672 89.5796 183.42 92.0837C186.156 94.5768 187.48 98.0456 187.48 102C187.48 105.954 186.156 109.423 183.42 111.916C180.672 114.42 176.324 116.1 169.98 116.1C164.113 116.1 159.903 114.756 156.801 112.447C153.692 110.132 151.534 106.727 149.997 102.307L149.4 100.591L147.828 101.502L120.228 117.502L119.089 118.163L119.596 119.378C128.486 140.671 148.336 150.3 169.98 150.3C183.762 150.3 196.874 146.218 206.568 138.1C216.296 129.955 222.48 117.828 222.48 102ZM60.0586 150.3C78.6164 150.3 93.3127 142.689 103.328 129.507C113.308 116.372 118.559 97.8194 118.559 76C118.559 54.1805 113.308 35.6282 103.328 22.4925C93.3127 9.31049 78.6164 1.69995 60.0586 1.69995C41.5008 1.69995 26.8045 9.31049 16.7892 22.4925C6.80914 35.6282 1.55859 54.1805 1.55859 76C1.55859 97.8194 6.80914 116.372 16.7892 129.507C26.8045 142.689 41.5008 150.3 60.0586 150.3ZM60.0586 116.1C52.1911 116.1 46.4312 112.732 42.5501 106.162C38.6007 99.4766 36.5586 89.3945 36.5586 76C36.5586 62.6054 38.6007 52.5233 42.5501 45.8379C46.4312 39.268 52.1911 35.9 60.0586 35.9C67.9261 35.9 73.686 39.268 77.5671 45.8379C81.5165 52.5233 83.5586 62.6054 83.5586 76C83.5586 89.3945 81.5165 99.4766 77.5671 106.162C73.686 112.732 67.9261 116.1 60.0586 116.1Z" fill="#F5791E" fill-opacity="0.15" stroke="#F5791E" stroke-width="3"/>
</svg>
