<svg width="39" height="30" viewBox="0 0 39 30" fill="none" xmlns="http://www.w3.org/2000/svg">
<path d="M32.5735 2.49294C30.0843 1.32833 27.4228 0.481941 24.6403 0C24.2986 0.617831 23.8993 1.44883 23.6241 2.10988C20.6662 1.66505 17.7355 1.66505 14.832 2.10988C14.5567 1.44883 14.1484 0.617831 13.8037 0C11.0181 0.481941 8.35355 1.33144 5.86441 2.4991C0.843795 10.0859 -0.517213 17.4843 0.163292 24.7776C3.49323 27.2643 6.72034 28.7749 9.89299 29.7634C10.6763 28.6853 11.375 27.5393 11.9768 26.3314C10.8306 25.8959 9.7327 25.3584 8.69534 24.7344C8.97054 24.5305 9.23974 24.3173 9.49982 24.098C15.827 27.0574 22.7016 27.0574 28.9532 24.098C29.2163 24.3173 29.4855 24.5305 29.7577 24.7344C28.7173 25.3614 27.6164 25.8989 26.4701 26.3345C27.072 27.5393 27.7676 28.6884 28.554 29.7665C31.7297 28.778 34.9598 27.2674 38.2897 24.7776C39.0882 16.3228 36.9257 8.99236 32.5735 2.49294ZM12.8388 20.2923C10.9395 20.2923 9.38185 18.5191 9.38185 16.3598C9.38185 14.2006 10.9062 12.4244 12.8388 12.4244C14.7715 12.4244 16.3291 14.1975 16.2958 16.3598C16.2988 18.5191 14.7715 20.2923 12.8388 20.2923ZM25.6142 20.2923C23.7148 20.2923 22.1572 18.5191 22.1572 16.3598C22.1572 14.2006 23.6815 12.4244 25.6142 12.4244C27.5468 12.4244 29.1044 14.1975 29.0712 16.3598C29.0712 18.5191 27.5468 20.2923 25.6142 20.2923Z" fill="black"/>
</svg>
