<svg width="23" height="22" viewBox="0 0 23 22" fill="none" xmlns="http://www.w3.org/2000/svg">
<path d="M6.51855 11.8148C6.763 17.6815 9.12596 21.5926 11.4074 21.5926C13.6889 21.5926 16.0519 17.6815 16.2963 11.8148H6.51855Z" fill="#FF6347"/>
<path d="M11.4074 0.40741C9.12596 0.40741 6.763 4.31852 6.51855 10.1852H16.2963C16.0519 4.31852 13.6889 0.40741 11.4074 0.40741Z" fill="#FF6347"/>
<path d="M17.9259 10.1852H22.8148C22.4074 5.21481 18.9037 1.14074 14.2593 0C16.2963 1.79259 17.763 5.62222 17.9259 10.1852Z" fill="#FF6347"/>
<path d="M4.88889 11.8148H0C0.325926 16.7852 3.82963 20.8593 8.55556 22C6.51852 20.2074 5.05185 16.3778 4.88889 11.8148Z" fill="#FF6347"/>
<path d="M17.9259 11.8148C17.763 16.3778 16.2963 20.2074 14.2593 22C18.9037 20.7778 22.4074 16.7037 22.8148 11.8148H17.9259Z" fill="#FF6347"/>
<path d="M4.88895 10.1852C5.05191 5.62222 6.51858 1.79259 8.55562 0C3.91117 1.14074 0.407469 5.21481 0.081543 10.1852H4.88895Z" fill="#FF6347"/>
</svg>
