<svg width="27" height="22" viewBox="0 0 27 22" fill="none" xmlns="http://www.w3.org/2000/svg">
<g clip-path="url(#clip0_654_654)">
<path fill-rule="evenodd" clip-rule="evenodd" d="M11.0683 6.90169V14.4989L17.9698 17.8796L11.0683 6.90169ZM26.4113 4.05944L18.2105 0.0507053C18.0772 -0.0189571 17.9077 0.032736 17.8275 0.1556L13.0871 7.69725L18.7282 16.6676L26.4903 4.32926C26.5537 4.233 26.5084 4.11137 26.4113 4.05944ZM19.1332 18.4394L25.8859 21.7404C26.2767 21.933 26.5977 21.7402 26.5977 21.3044V6.575L19.1332 18.4394ZM9.77416 3.81869V21.3133C9.77416 21.7401 9.2384 22.1434 8.84628 21.9509L0.715332 17.7519V0.451958C0.715332 0.163162 1.01168 -0.164722 1.53709 0.093674L9.77416 3.81869Z" fill="#FF6347"/>
</g>
<defs>
<clipPath id="clip0_654_654">
<rect width="25.8824" height="22" fill="white" transform="translate(0.715332)"/>
</clipPath>
</defs>
</svg>
