<svg width="33" height="32" viewBox="0 0 33 32" fill="none" xmlns="http://www.w3.org/2000/svg">
<path d="M2.24663 4.53124C2.62872 2.90231 3.90059 1.63044 5.52951 1.24835C6.94117 0.917216 8.41031 0.917216 9.82196 1.24835C11.4509 1.63044 12.7228 2.90231 13.1048 4.53124C13.436 5.94289 13.436 7.41203 13.1048 8.82369C12.7228 10.4526 11.4509 11.7245 9.82196 12.1066C8.41031 12.4377 6.94117 12.4377 5.52951 12.1066C3.90059 11.7245 2.62872 10.4526 2.24663 8.82369C1.91551 7.41203 1.91551 5.94289 2.24663 4.53124Z" stroke="white" stroke-width="2"/>
<path d="M2.24663 23.1764C2.62872 21.5475 3.90059 20.2755 5.52951 19.8935C6.94117 19.5624 8.41031 19.5624 9.82196 19.8935C11.4509 20.2755 12.7228 21.5475 13.1048 23.1764C13.436 24.588 13.436 26.0572 13.1048 27.4688C12.7228 29.0977 11.4509 30.3697 9.82196 30.7517C8.41031 31.0828 6.94117 31.0828 5.52951 30.7517C3.90059 30.3697 2.62872 29.0977 2.24663 27.4688C1.91551 26.0572 1.91551 24.588 2.24663 23.1764Z" stroke="#F68C20" stroke-width="2"/>
<path d="M20.8917 4.53124C21.2738 2.90231 22.5457 1.63044 24.1746 1.24835C25.5862 0.917216 27.0555 0.917216 28.4671 1.24835C30.096 1.63044 31.3679 2.90231 31.75 4.53124C32.081 5.94289 32.081 7.41203 31.75 8.82369C31.3679 10.4526 30.096 11.7245 28.4671 12.1066C27.0555 12.4377 25.5862 12.4377 24.1746 12.1066C22.5457 11.7245 21.2738 10.4526 20.8917 8.82369C20.5607 7.41203 20.5607 5.94289 20.8917 4.53124Z" stroke="white" stroke-width="2"/>
<path d="M20.8917 23.1764C21.2738 21.5475 22.5457 20.2755 24.1746 19.8935C25.5862 19.5624 27.0555 19.5624 28.4671 19.8935C30.096 20.2755 31.3679 21.5475 31.75 23.1764C32.081 24.588 32.081 26.0572 31.75 27.4688C31.3679 29.0977 30.096 30.3697 28.4671 30.7517C27.0555 31.0828 25.5862 31.0828 24.1746 30.7517C22.5457 30.3697 21.2738 29.0977 20.8917 27.4688C20.5607 26.0572 20.5607 24.588 20.8917 23.1764Z" stroke="white" stroke-width="2"/>
</svg>
