<svg width="25" height="20" viewBox="0 0 25 20" fill="none" xmlns="http://www.w3.org/2000/svg">
<path d="M22.4395 0.176551C22.4395 0.176551 24.626 -0.689127 24.4438 1.41332C24.3831 2.27904 23.8365 5.30904 23.4113 8.58638L21.9536 18.2948C21.9536 18.2948 21.8321 19.717 20.7389 19.9644C19.6455 20.2117 18.0057 19.0987 17.702 18.8513C17.459 18.6658 13.1467 15.8831 11.6283 14.5227C11.2031 14.1517 10.7172 13.4097 11.689 12.5439L18.0664 6.36029C18.7953 5.61826 19.5241 3.8868 16.4873 5.98925L7.98408 11.8638C7.98408 11.8638 7.01225 12.4821 5.19017 11.9256L1.24224 10.6889C1.24224 10.6889 -0.215457 9.76132 2.27477 8.83372C8.34851 5.92737 15.8192 2.9592 22.4395 0.176551Z" fill="white"/>
</svg>
