<svg width="27" height="22" viewBox="0 0 27 22" fill="none" xmlns="http://www.w3.org/2000/svg">
<path d="M24.4642 0.194206C24.4642 0.194206 26.9064 -0.75804 26.7029 1.55465C26.635 2.50695 26.0245 5.83995 25.5496 9.44502L23.9215 20.1243C23.9215 20.1243 23.7859 21.6887 22.5647 21.9608C21.3436 22.2329 19.512 21.0086 19.1728 20.7364C18.9014 20.5324 14.0849 17.4715 12.3889 15.975C11.914 15.5669 11.3713 14.7506 12.4567 13.7983L19.5799 6.99632C20.3939 6.18008 21.2079 4.27548 17.816 6.58817L8.31864 13.0501C8.31864 13.0501 7.23318 13.7303 5.19806 13.1182L0.788523 11.7578C0.788523 11.7578 -0.839615 10.7375 1.94178 9.7171C8.72567 6.52011 17.0699 3.25512 24.4642 0.194206Z" fill="#FF6347"/>
</svg>
