<svg width="29" height="22" viewBox="0 0 29 22" fill="none" xmlns="http://www.w3.org/2000/svg">
<path fill-rule="evenodd" clip-rule="evenodd" d="M9.4638 22C19.8411 22 25.5171 13.5348 25.5171 6.19468C25.5171 5.95371 25.5171 5.71455 25.5006 5.47629C26.6048 4.6911 27.5577 3.7162 28.3153 2.6007C27.2868 3.05016 26.1936 3.34491 25.0758 3.47486C26.2528 2.78038 27.1342 1.68931 27.5563 0.401884C26.448 1.04898 25.2366 1.50568 23.973 1.75072C21.8362 -0.485708 18.2625 -0.594063 15.9896 1.50969C14.5252 2.86615 13.9024 4.88863 14.3575 6.81774C9.82131 6.59302 5.5945 4.48389 2.72897 1.0142C1.23157 3.55249 1.99746 6.79848 4.47661 8.42842C3.57873 8.40269 2.70009 8.16468 1.91496 7.73419V7.80469C1.91633 10.4486 3.80973 12.7251 6.44151 13.249C5.611 13.4724 4.73924 13.5048 3.89498 13.3437C4.63337 15.6072 6.75227 17.1575 9.16542 17.2022C7.16752 18.7482 4.69937 19.5877 2.15833 19.585C1.71008 19.5836 1.26182 19.5579 0.814941 19.5051C3.39585 21.135 6.39751 22 9.4638 21.996" fill="#FF6347"/>
</svg>
