<svg width="25" height="20" viewBox="0 0 25 20" fill="none" xmlns="http://www.w3.org/2000/svg">
<path d="M8.16409 20C17.4267 20 22.4953 12.3025 22.4953 5.63922C22.4953 5.42345 22.4953 5.20655 22.4853 4.99078C23.4721 4.27419 24.3237 3.38717 25 2.37129C24.0787 2.77876 23.1023 3.04738 22.1026 3.16843C23.1561 2.53699 23.945 1.54381 24.3228 0.373417C23.3333 0.961187 22.2501 1.3738 21.1207 1.59316C20.6499 1.08962 20.0808 0.688379 19.4488 0.414326C18.8168 0.140273 18.1354 -0.000749958 17.4467 2.99933e-06C16.1108 0.00118716 14.8299 0.533505 13.8853 1.4801C12.9406 2.4267 12.4094 3.71022 12.4082 5.04891C12.4082 5.44245 12.4573 5.82705 12.5354 6.20046C8.35153 5.99363 4.63847 3.97563 2.1538 0.925711C1.51096 2.03804 1.31466 3.35384 1.60476 4.60593C1.89487 5.85802 2.64962 6.95255 3.71579 7.66728C2.91725 7.6395 2.13643 7.42388 1.43641 7.03785V7.10604C1.43763 8.2711 1.8402 9.40001 2.57608 10.302C3.31197 11.204 4.33604 11.8238 5.47525 12.0566C5.04324 12.1762 4.5969 12.2361 4.14868 12.2343C3.82513 12.2343 3.5105 12.2041 3.20591 12.1449C3.52693 13.1481 4.15322 14.0255 4.99697 14.6541C5.84072 15.2826 6.85963 15.6308 7.91083 15.6498C6.12699 17.055 3.92299 17.8174 1.65397 17.8143C1.25315 17.8164 0.852592 17.7937 0.45459 17.7461C2.75743 19.2185 5.43238 20.0006 8.16409 20Z" fill="white"/>
</svg>
